<mxfile host="app.diagrams.net" modified="2022-11-08T03:26:20.306Z" agent="5.0 (Windows NT 10.0; Win64; x64) AppleWebKit/537.36 (KHTML, like Gecko) Chrome/107.0.0.0 Safari/537.36" etag="9b93GSFEVHprqTMn_v-N" version="20.5.3" type="github">
  <diagram id="cVLzG-K3iiUjKoX7p87Y" name="第 1 页">
    <mxGraphModel dx="1329" dy="649" grid="1" gridSize="10" guides="1" tooltips="1" connect="1" arrows="1" fold="1" page="1" pageScale="1" pageWidth="827" pageHeight="1169" math="0" shadow="0">
      <root>
        <mxCell id="0" />
        <mxCell id="1" parent="0" />
        <mxCell id="iiS6xgG6u0n_x_v1UmSF-13" value="" style="group" vertex="1" connectable="0" parent="1">
          <mxGeometry x="330" y="240" width="140" height="120" as="geometry" />
        </mxCell>
        <mxCell id="iiS6xgG6u0n_x_v1UmSF-2" value="" style="shape=cube;whiteSpace=wrap;html=1;boundedLbl=1;backgroundOutline=1;darkOpacity=0.05;darkOpacity2=0.1;rotation=90;container=0;fillColor=#f8cecc;strokeColor=#b85450;" vertex="1" parent="iiS6xgG6u0n_x_v1UmSF-13">
          <mxGeometry x="40" width="70" height="70" as="geometry" />
        </mxCell>
        <mxCell id="iiS6xgG6u0n_x_v1UmSF-10" value="&lt;pre style=&quot;cursor: auto; user-select: text; color: rgb(66, 66, 66); text-align: left; background-color: rgb(255, 255, 255);&quot; class=&quot;vC7TJ allowTextSelection&quot;&gt;&lt;pre style=&quot;cursor: auto; user-select: text;&quot; class=&quot;vC7TJ allowTextSelection&quot;&gt;&lt;b style=&quot;&quot;&gt;&lt;font style=&quot;font-size: 19px;&quot; face=&quot;Helvetica&quot;&gt;niu-aase-te-composite&lt;/font&gt;&lt;/b&gt;&lt;/pre&gt;&lt;/pre&gt;" style="text;html=1;strokeColor=none;fillColor=none;align=center;verticalAlign=middle;whiteSpace=wrap;rounded=0;container=0;" vertex="1" parent="iiS6xgG6u0n_x_v1UmSF-13">
          <mxGeometry x="45" y="70" width="60" height="30" as="geometry" />
        </mxCell>
        <mxCell id="iiS6xgG6u0n_x_v1UmSF-12" value="&lt;b&gt;京智柜面中某一工作负载&lt;/b&gt;" style="text;html=1;strokeColor=none;fillColor=none;align=center;verticalAlign=middle;whiteSpace=wrap;rounded=0;fontFamily=Helvetica;fontSize=19;container=0;" vertex="1" parent="iiS6xgG6u0n_x_v1UmSF-13">
          <mxGeometry y="100" width="140" height="30" as="geometry" />
        </mxCell>
        <mxCell id="iiS6xgG6u0n_x_v1UmSF-14" value="" style="group" vertex="1" connectable="0" parent="1">
          <mxGeometry x="190" y="430" width="140" height="120" as="geometry" />
        </mxCell>
        <mxCell id="iiS6xgG6u0n_x_v1UmSF-15" value="" style="shape=cube;whiteSpace=wrap;html=1;boundedLbl=1;backgroundOutline=1;darkOpacity=0.05;darkOpacity2=0.1;rotation=90;container=0;fillColor=#fff2cc;strokeColor=#d6b656;" vertex="1" parent="iiS6xgG6u0n_x_v1UmSF-14">
          <mxGeometry x="35" width="70" height="70" as="geometry" />
        </mxCell>
        <mxCell id="iiS6xgG6u0n_x_v1UmSF-16" value="&lt;pre style=&quot;cursor: auto; user-select: text; color: rgb(66, 66, 66); font-size: 19px; text-align: left; background-color: rgb(255, 255, 255);&quot; class=&quot;vC7TJ allowTextSelection&quot;&gt;&lt;pre style=&quot;cursor: auto; user-select: text;&quot; class=&quot;vC7TJ allowTextSelection&quot;&gt;&lt;b&gt;&lt;font face=&quot;Helvetica&quot;&gt;db.niu.bj.bob:1521&lt;/font&gt;&lt;/b&gt;&lt;/pre&gt;&lt;/pre&gt;" style="text;html=1;strokeColor=none;fillColor=none;align=center;verticalAlign=middle;whiteSpace=wrap;rounded=0;container=0;" vertex="1" parent="iiS6xgG6u0n_x_v1UmSF-14">
          <mxGeometry x="45" y="70" width="60" height="30" as="geometry" />
        </mxCell>
        <mxCell id="iiS6xgG6u0n_x_v1UmSF-17" value="&lt;b&gt;Oracle数据库&lt;/b&gt;" style="text;html=1;strokeColor=none;fillColor=none;align=center;verticalAlign=middle;whiteSpace=wrap;rounded=0;fontFamily=Helvetica;fontSize=19;container=0;" vertex="1" parent="iiS6xgG6u0n_x_v1UmSF-14">
          <mxGeometry y="90" width="140" height="30" as="geometry" />
        </mxCell>
        <mxCell id="iiS6xgG6u0n_x_v1UmSF-18" value="" style="group" vertex="1" connectable="0" parent="1">
          <mxGeometry x="600" y="250" width="200" height="120" as="geometry" />
        </mxCell>
        <mxCell id="iiS6xgG6u0n_x_v1UmSF-19" value="" style="shape=cube;whiteSpace=wrap;html=1;boundedLbl=1;backgroundOutline=1;darkOpacity=0.05;darkOpacity2=0.1;rotation=90;container=0;fillColor=#e1d5e7;strokeColor=#9673a6;" vertex="1" parent="iiS6xgG6u0n_x_v1UmSF-18">
          <mxGeometry x="40" width="70" height="70" as="geometry" />
        </mxCell>
        <mxCell id="iiS6xgG6u0n_x_v1UmSF-20" value="&lt;pre style=&quot;cursor: auto; user-select: text; color: rgb(66, 66, 66); text-align: left; background-color: rgb(255, 255, 255);&quot; class=&quot;vC7TJ allowTextSelection&quot;&gt;&lt;pre style=&quot;cursor: auto; user-select: text;&quot; class=&quot;vC7TJ allowTextSelection&quot;&gt;&lt;b style=&quot;&quot;&gt;&lt;font style=&quot;font-size: 19px;&quot; face=&quot;Helvetica&quot;&gt;niu-redis-redis-cluster:6379;&lt;/font&gt;&lt;/b&gt;&lt;/pre&gt;&lt;/pre&gt;" style="text;html=1;strokeColor=none;fillColor=none;align=center;verticalAlign=middle;whiteSpace=wrap;rounded=0;container=0;" vertex="1" parent="iiS6xgG6u0n_x_v1UmSF-18">
          <mxGeometry x="45" y="70" width="60" height="30" as="geometry" />
        </mxCell>
        <mxCell id="iiS6xgG6u0n_x_v1UmSF-21" value="&lt;b&gt;Redis集群工作负载&lt;/b&gt;" style="text;html=1;strokeColor=none;fillColor=none;align=center;verticalAlign=middle;whiteSpace=wrap;rounded=0;fontFamily=Helvetica;fontSize=19;container=0;" vertex="1" parent="iiS6xgG6u0n_x_v1UmSF-18">
          <mxGeometry x="-25" y="90" width="200" height="30" as="geometry" />
        </mxCell>
        <mxCell id="iiS6xgG6u0n_x_v1UmSF-22" value="" style="group" vertex="1" connectable="0" parent="1">
          <mxGeometry x="210" y="60" width="140" height="120" as="geometry" />
        </mxCell>
        <mxCell id="iiS6xgG6u0n_x_v1UmSF-23" value="" style="shape=cube;whiteSpace=wrap;html=1;boundedLbl=1;backgroundOutline=1;darkOpacity=0.05;darkOpacity2=0.1;rotation=90;container=0;fillColor=#fff2cc;strokeColor=#d6b656;" vertex="1" parent="iiS6xgG6u0n_x_v1UmSF-22">
          <mxGeometry x="40" width="70" height="70" as="geometry" />
        </mxCell>
        <mxCell id="iiS6xgG6u0n_x_v1UmSF-24" value="&lt;pre style=&quot;cursor: auto; user-select: text; color: rgb(66, 66, 66); font-size: 19px; text-align: left; background-color: rgb(255, 255, 255);&quot; class=&quot;vC7TJ allowTextSelection&quot;&gt;&lt;b&gt;db.teller.bj.bob:1521&lt;/b&gt;&lt;/pre&gt;" style="text;html=1;strokeColor=none;fillColor=none;align=center;verticalAlign=middle;whiteSpace=wrap;rounded=0;container=0;" vertex="1" parent="iiS6xgG6u0n_x_v1UmSF-22">
          <mxGeometry x="45" y="70" width="60" height="30" as="geometry" />
        </mxCell>
        <mxCell id="iiS6xgG6u0n_x_v1UmSF-25" value="&lt;b&gt;Oracle数据库&lt;/b&gt;" style="text;html=1;strokeColor=none;fillColor=none;align=center;verticalAlign=middle;whiteSpace=wrap;rounded=0;fontFamily=Helvetica;fontSize=19;container=0;" vertex="1" parent="iiS6xgG6u0n_x_v1UmSF-22">
          <mxGeometry y="90" width="140" height="30" as="geometry" />
        </mxCell>
        <mxCell id="iiS6xgG6u0n_x_v1UmSF-30" value="" style="group" vertex="1" connectable="0" parent="1">
          <mxGeometry x="100" y="250" width="140" height="120" as="geometry" />
        </mxCell>
        <mxCell id="iiS6xgG6u0n_x_v1UmSF-31" value="" style="shape=cube;whiteSpace=wrap;html=1;boundedLbl=1;backgroundOutline=1;darkOpacity=0.05;darkOpacity2=0.1;rotation=90;container=0;fillColor=#f5f5f5;fontColor=#333333;strokeColor=#666666;" vertex="1" parent="iiS6xgG6u0n_x_v1UmSF-30">
          <mxGeometry x="40" width="70" height="70" as="geometry" />
        </mxCell>
        <mxCell id="iiS6xgG6u0n_x_v1UmSF-32" value="&lt;pre style=&quot;cursor: auto; user-select: text; color: rgb(66, 66, 66); text-align: left; background-color: rgb(255, 255, 255);&quot; class=&quot;vC7TJ allowTextSelection&quot;&gt;&lt;pre style=&quot;cursor: auto; user-select: text;&quot; class=&quot;vC7TJ allowTextSelection&quot;&gt;&lt;b style=&quot;&quot;&gt;&lt;font style=&quot;font-size: 19px;&quot; face=&quot;Helvetica&quot;&gt;gw03.ofc.bj.bob:8098&lt;/font&gt;&lt;/b&gt;&lt;/pre&gt;&lt;/pre&gt;" style="text;html=1;strokeColor=none;fillColor=none;align=center;verticalAlign=middle;whiteSpace=wrap;rounded=0;container=0;" vertex="1" parent="iiS6xgG6u0n_x_v1UmSF-30">
          <mxGeometry x="45" y="70" width="60" height="30" as="geometry" />
        </mxCell>
        <mxCell id="iiS6xgG6u0n_x_v1UmSF-33" value="&lt;b&gt;Http客户端&lt;/b&gt;" style="text;html=1;strokeColor=none;fillColor=none;align=center;verticalAlign=middle;whiteSpace=wrap;rounded=0;fontFamily=Helvetica;fontSize=19;container=0;" vertex="1" parent="iiS6xgG6u0n_x_v1UmSF-30">
          <mxGeometry y="90" width="140" height="30" as="geometry" />
        </mxCell>
        <mxCell id="iiS6xgG6u0n_x_v1UmSF-34" value="" style="group" vertex="1" connectable="0" parent="1">
          <mxGeometry x="550" y="60" width="140" height="120" as="geometry" />
        </mxCell>
        <mxCell id="iiS6xgG6u0n_x_v1UmSF-35" value="" style="shape=cube;whiteSpace=wrap;html=1;boundedLbl=1;backgroundOutline=1;darkOpacity=0.05;darkOpacity2=0.1;rotation=90;container=0;fillColor=#dae8fc;strokeColor=#6c8ebf;" vertex="1" parent="iiS6xgG6u0n_x_v1UmSF-34">
          <mxGeometry x="40" width="70" height="70" as="geometry" />
        </mxCell>
        <mxCell id="iiS6xgG6u0n_x_v1UmSF-36" value="&lt;pre style=&quot;cursor: auto; user-select: text; color: rgb(66, 66, 66); text-align: left; background-color: rgb(255, 255, 255);&quot; class=&quot;vC7TJ allowTextSelection&quot;&gt;&lt;pre style=&quot;cursor: auto; user-select: text;&quot; class=&quot;vC7TJ allowTextSelection&quot;&gt;&lt;b style=&quot;&quot;&gt;&lt;font style=&quot;font-size: 19px;&quot; face=&quot;Helvetica&quot;&gt;cdf-gateway&lt;/font&gt;&lt;/b&gt;&lt;/pre&gt;&lt;/pre&gt;" style="text;html=1;strokeColor=none;fillColor=none;align=center;verticalAlign=middle;whiteSpace=wrap;rounded=0;container=0;" vertex="1" parent="iiS6xgG6u0n_x_v1UmSF-34">
          <mxGeometry x="45" y="70" width="60" height="30" as="geometry" />
        </mxCell>
        <mxCell id="iiS6xgG6u0n_x_v1UmSF-37" value="&lt;b&gt;网关工作负载&lt;/b&gt;" style="text;html=1;strokeColor=none;fillColor=none;align=center;verticalAlign=middle;whiteSpace=wrap;rounded=0;fontFamily=Helvetica;fontSize=19;container=0;" vertex="1" parent="iiS6xgG6u0n_x_v1UmSF-34">
          <mxGeometry y="90" width="140" height="30" as="geometry" />
        </mxCell>
        <mxCell id="iiS6xgG6u0n_x_v1UmSF-38" value="" style="group" vertex="1" connectable="0" parent="1">
          <mxGeometry x="530" y="450" width="140" height="120" as="geometry" />
        </mxCell>
        <mxCell id="iiS6xgG6u0n_x_v1UmSF-39" value="" style="shape=cube;whiteSpace=wrap;html=1;boundedLbl=1;backgroundOutline=1;darkOpacity=0.05;darkOpacity2=0.1;rotation=90;container=0;fillColor=#dae8fc;strokeColor=#6c8ebf;" vertex="1" parent="iiS6xgG6u0n_x_v1UmSF-38">
          <mxGeometry x="40" width="70" height="70" as="geometry" />
        </mxCell>
        <mxCell id="iiS6xgG6u0n_x_v1UmSF-40" value="&lt;pre style=&quot;cursor: auto; user-select: text; color: rgb(66, 66, 66); text-align: left; background-color: rgb(255, 255, 255);&quot; class=&quot;vC7TJ allowTextSelection&quot;&gt;&lt;pre style=&quot;cursor: auto; user-select: text;&quot; class=&quot;vC7TJ allowTextSelection&quot;&gt;&lt;b style=&quot;&quot;&gt;&lt;font style=&quot;font-size: 19px;&quot; face=&quot;Helvetica&quot;&gt;niu-gateway&lt;/font&gt;&lt;/b&gt;&lt;/pre&gt;&lt;/pre&gt;" style="text;html=1;strokeColor=none;fillColor=none;align=center;verticalAlign=middle;whiteSpace=wrap;rounded=0;container=0;" vertex="1" parent="iiS6xgG6u0n_x_v1UmSF-38">
          <mxGeometry x="45" y="70" width="60" height="30" as="geometry" />
        </mxCell>
        <mxCell id="iiS6xgG6u0n_x_v1UmSF-41" value="&lt;b&gt;网关工作负载&lt;/b&gt;" style="text;html=1;strokeColor=none;fillColor=none;align=center;verticalAlign=middle;whiteSpace=wrap;rounded=0;fontFamily=Helvetica;fontSize=19;container=0;" vertex="1" parent="iiS6xgG6u0n_x_v1UmSF-38">
          <mxGeometry y="90" width="140" height="30" as="geometry" />
        </mxCell>
        <mxCell id="iiS6xgG6u0n_x_v1UmSF-44" style="edgeStyle=orthogonalEdgeStyle;orthogonalLoop=1;jettySize=auto;html=1;entryX=0;entryY=0;entryDx=45;entryDy=70;entryPerimeter=0;fontFamily=Helvetica;fontSize=19;strokeColor=default;curved=1;" edge="1" parent="1" source="iiS6xgG6u0n_x_v1UmSF-2" target="iiS6xgG6u0n_x_v1UmSF-35">
          <mxGeometry relative="1" as="geometry" />
        </mxCell>
        <mxCell id="iiS6xgG6u0n_x_v1UmSF-45" style="edgeStyle=orthogonalEdgeStyle;curved=1;orthogonalLoop=1;jettySize=auto;html=1;strokeColor=default;fontFamily=Helvetica;fontSize=19;" edge="1" parent="1" source="iiS6xgG6u0n_x_v1UmSF-2" target="iiS6xgG6u0n_x_v1UmSF-19">
          <mxGeometry relative="1" as="geometry" />
        </mxCell>
        <mxCell id="iiS6xgG6u0n_x_v1UmSF-46" style="edgeStyle=orthogonalEdgeStyle;curved=1;orthogonalLoop=1;jettySize=auto;html=1;strokeColor=default;fontFamily=Helvetica;fontSize=19;" edge="1" parent="1" source="iiS6xgG6u0n_x_v1UmSF-2" target="iiS6xgG6u0n_x_v1UmSF-39">
          <mxGeometry relative="1" as="geometry" />
        </mxCell>
        <mxCell id="iiS6xgG6u0n_x_v1UmSF-47" style="edgeStyle=orthogonalEdgeStyle;curved=1;orthogonalLoop=1;jettySize=auto;html=1;strokeColor=default;fontFamily=Helvetica;fontSize=19;" edge="1" parent="1" source="iiS6xgG6u0n_x_v1UmSF-2" target="iiS6xgG6u0n_x_v1UmSF-15">
          <mxGeometry relative="1" as="geometry" />
        </mxCell>
        <mxCell id="iiS6xgG6u0n_x_v1UmSF-48" style="edgeStyle=orthogonalEdgeStyle;curved=1;orthogonalLoop=1;jettySize=auto;html=1;strokeColor=default;fontFamily=Helvetica;fontSize=19;" edge="1" parent="1" source="iiS6xgG6u0n_x_v1UmSF-2" target="iiS6xgG6u0n_x_v1UmSF-31">
          <mxGeometry relative="1" as="geometry" />
        </mxCell>
        <mxCell id="iiS6xgG6u0n_x_v1UmSF-49" style="edgeStyle=orthogonalEdgeStyle;curved=1;orthogonalLoop=1;jettySize=auto;html=1;entryX=0;entryY=0;entryDx=25;entryDy=0;entryPerimeter=0;strokeColor=default;fontFamily=Helvetica;fontSize=19;" edge="1" parent="1" source="iiS6xgG6u0n_x_v1UmSF-2" target="iiS6xgG6u0n_x_v1UmSF-23">
          <mxGeometry relative="1" as="geometry" />
        </mxCell>
      </root>
    </mxGraphModel>
  </diagram>
</mxfile>
